<svg xmlns="http://www.w3.org/2000/svg" width="54" height="54" viewBox="0 0 54 54" fill="none">
    <path fill-rule="evenodd" clip-rule="evenodd" d="M26.9992 16C24.0122 16 23.6374 16.0131 22.4642 16.0664C21.2934 16.1201 20.4942 16.3054 19.7949 16.5774C19.0715 16.8583 18.4579 17.2341 17.8466 17.8456C17.2348 18.457 16.859 19.0706 16.5772 19.7937C16.3045 20.4933 16.1189 21.2927 16.0662 22.4631C16.0137 23.6362 16 24.0113 16 26.9983C16 29.9852 16.0133 30.3589 16.0664 31.5321C16.1203 32.7029 16.3057 33.5022 16.5774 34.2015C16.8586 34.9248 17.2343 35.5384 17.8459 36.1498C18.457 36.7615 19.0706 37.1382 19.7935 37.4191C20.4933 37.6911 21.2927 37.8765 22.4633 37.9301C23.6365 37.9835 24.0111 37.9966 26.9978 37.9966C29.985 37.9966 30.3587 37.9835 31.5319 37.9301C32.7027 37.8765 33.5028 37.6911 34.2026 37.4191C34.9257 37.1382 35.5384 36.7615 36.1495 36.1498C36.7613 35.5384 37.1371 34.9248 37.4189 34.2017C37.6893 33.5022 37.8749 32.7027 37.9299 31.5323C37.9826 30.3592 37.9963 29.9852 37.9963 26.9983C37.9963 24.0113 37.9826 23.6365 37.9299 22.4633C37.8749 21.2925 37.6893 20.4933 37.4189 19.7939C37.1371 19.0706 36.7613 18.457 36.1495 17.8456C35.5378 17.2339 34.926 16.8581 34.2019 16.5774C33.5008 16.3054 32.7011 16.1201 31.5303 16.0664C30.3571 16.0131 29.9836 16 26.9958 16H26.9992ZM32.8672 19.8106C32.1385 19.8106 31.5474 20.4011 31.5474 21.13C31.5474 21.8586 32.1385 22.4498 32.8672 22.4498C33.5958 22.4498 34.187 21.8586 34.187 21.13C34.187 20.4013 33.5958 19.8102 32.8672 19.8102V19.8106ZM26.9974 21.3469C23.8783 21.3469 21.3494 23.8758 21.3494 26.995C21.3494 30.1142 23.8783 32.6419 26.9974 32.6419C30.1166 32.6419 32.6446 30.1142 32.6446 26.995C32.6446 23.8759 30.1165 21.347 26.9974 21.3469ZM26.9991 23.3306C29.0237 23.3306 30.6652 24.9718 30.6652 26.9967C30.6652 29.0213 29.0237 30.6627 26.9991 30.6627C24.9743 30.6627 23.333 29.0213 23.333 26.9967C23.333 24.9718 24.9743 23.3306 26.9991 23.3306Z" fill="white"/>
</svg>