<svg xmlns="http://www.w3.org/2000/svg" width="54" height="54" viewBox="0 0 54 54" fill="none">
    <path fill-rule="evenodd" clip-rule="evenodd" d="M27.0448 38.7048H27.0497C33.5574 38.7022 38.8503 33.4081 38.8529 26.9017C38.8541 23.7479 37.6275 20.7824 35.3991 18.5515C33.1706 16.3204 30.2071 15.0912 27.0496 15.0898C20.5437 15.0898 15.2488 20.3845 15.2462 26.8924C15.2453 28.9727 15.7888 31.0031 16.8217 32.7932L15.1472 38.9095L21.4043 37.2682C23.1283 38.2085 25.0694 38.7042 27.0448 38.7048ZM22.0526 35.3439L21.6944 35.1313L17.9813 36.1053L18.9724 32.4851L18.7391 32.1139C17.7571 30.5519 17.2384 28.7467 17.2392 26.8929C17.2413 21.4839 21.6423 17.0833 27.0537 17.0833C29.6741 17.0842 32.1373 18.106 33.9895 19.9603C35.8417 21.8147 36.8611 24.2795 36.8601 26.9009C36.858 32.3103 32.457 36.7113 27.0498 36.7113H27.0459C25.2855 36.7107 23.5589 36.2377 22.0526 35.3439Z" fill="#E1E1E1"/>
    <path fill-rule="evenodd" clip-rule="evenodd" d="M32.9957 29.7083C32.922 29.5853 32.7254 29.5115 32.4305 29.3638C32.1356 29.2162 30.6856 28.5028 30.4152 28.4043C30.1449 28.3059 29.9483 28.2567 29.7517 28.5519C29.5551 28.8471 28.9899 29.5115 28.8178 29.7083C28.6458 29.9051 28.4737 29.9298 28.1789 29.7821C27.884 29.6345 26.9337 29.3231 25.8072 28.3183C24.9304 27.5362 24.3386 26.5705 24.1665 26.2752C23.9945 25.98 24.1482 25.8204 24.2958 25.6733C24.4285 25.5412 24.5908 25.3288 24.7382 25.1566C24.8857 24.9845 24.9348 24.8614 25.0331 24.6647C25.1314 24.4678 25.0823 24.2956 25.0085 24.148C24.9348 24.0003 24.345 22.5486 24.0992 21.9581C23.8598 21.383 23.6167 21.4609 23.4357 21.4519C23.2638 21.4432 23.067 21.4414 22.8704 21.4414C22.6738 21.4414 22.3543 21.5152 22.084 21.8105C21.8136 22.1058 21.0518 22.8193 21.0518 24.2708C21.0518 25.7225 22.1085 27.1249 22.256 27.3217C22.4035 27.5186 24.3356 30.4975 27.2942 31.775C27.9978 32.0788 28.5471 32.2603 28.9755 32.3962C29.6819 32.6207 30.3249 32.589 30.833 32.5131C31.3997 32.4284 32.5779 31.7997 32.8238 31.1108C33.0694 30.4218 33.0694 29.8313 32.9957 29.7083Z" fill="#E1E1E1"/>
</svg>