<svg xmlns="http://www.w3.org/2000/svg" width="2000" height="1334" viewBox="0 0 2000 1334" fill="none">
    <g opacity="0.1">
        <line x1="111.538" y1="1" x2="111.538" y2="1333.45" stroke="#FFAC29"/>
        <line x1="222.575" y1="1" x2="222.575" y2="1333.45" stroke="#FFAC29"/>
        <line x1="333.613" y1="1" x2="333.613" y2="1333.45" stroke="#FFAC29"/>
        <line x1="444.651" y1="1" x2="444.651" y2="1333.45" stroke="#FFAC29"/>
        <line x1="555.688" y1="1" x2="555.688" y2="1333.45" stroke="#FFAC29"/>
        <line x1="666.726" y1="1" x2="666.726" y2="1333.45" stroke="#FFAC29"/>
        <line x1="777.764" y1="1" x2="777.764" y2="1333.45" stroke="#FFAC29"/>
        <line x1="888.801" y1="1" x2="888.801" y2="1333.45" stroke="#FFAC29"/>
        <line x1="999.839" y1="1" x2="999.839" y2="1333.45" stroke="#FFAC29"/>
        <line x1="1110.88" y1="1" x2="1110.88" y2="1333.45" stroke="#FFAC29"/>
        <line x1="1221.91" y1="1" x2="1221.91" y2="1333.45" stroke="#FFAC29"/>
        <line x1="1332.95" y1="1" x2="1332.95" y2="1333.45" stroke="#FFAC29"/>
        <line x1="1443.99" y1="1" x2="1443.99" y2="1333.45" stroke="#FFAC29"/>
        <line x1="1555.03" y1="1" x2="1555.03" y2="1333.45" stroke="#FFAC29"/>
        <line x1="1666.07" y1="1" x2="1666.07" y2="1333.45" stroke="#FFAC29"/>
        <line x1="1777.1" y1="1" x2="1777.1" y2="1333.45" stroke="#FFAC29"/>
        <line x1="1888.14" y1="1" x2="1888.14" y2="1333.45" stroke="#FFAC29"/>
        <line y1="888.801" x2="1998.68" y2="888.801" stroke="#FFAC29"/>
        <line y1="999.839" x2="1998.68" y2="999.839" stroke="#FFAC29"/>
        <line x1="1.32178" y1="1110.88" x2="2000" y2="1110.88" stroke="#FFAC29"/>
        <line x1="1.32178" y1="1221.91" x2="2000" y2="1221.91" stroke="#FFAC29"/>
        <line x1="1.32178" y1="1332.5" x2="2000" y2="1332.5" stroke="#FFAC29"/>
        <line y1="777.764" x2="1998.68" y2="777.764" stroke="#FFAC29"/>
        <line y1="666.726" x2="1998.68" y2="666.726" stroke="#FFAC29"/>
        <line y1="555.688" x2="1998.68" y2="555.688" stroke="#FFAC29"/>
        <line y1="444.651" x2="1998.68" y2="444.651" stroke="#FFAC29"/>
        <line y1="333.613" x2="1998.68" y2="333.613" stroke="#FFAC29"/>
        <line y1="222.575" x2="1998.68" y2="222.575" stroke="#FFAC29"/>
        <line y1="111.538" x2="1998.68" y2="111.538" stroke="#FFAC29"/>
        <line y1="0.5" x2="1998.68" y2="0.5" stroke="#FFAC29"/>
    </g>
</svg>